<svg xmlns="http://www.w3.org/2000/svg" viewBox="0 0 64 64"><path fill="#4d4d4d" d="M61 24v5h-6c1-2.83 1-5 1-5h5z"/><path fill="#8030fe" d="M56 24s0 2.17-1 5c-.98 2.76-2.92 6.16-6.74 8.78v.01a21.19 21.19 0 0 1-4.81 2.43c-1.2.44-2.52.81-3.97 1.1-2.19.43-4.67.68-7.48.68s-5.29-.25-7.48-.68c-1.45-.29-2.77-.66-3.97-1.1a21.19 21.19 0 0 1-4.81-2.43v-.01C11.92 35.16 9.98 31.76 9 29c-1-2.83-1-5-1-5h48z"/><path fill="#6c1ec6" d="M56 24s0 2.17-1 5c-.98 2.76-2.92 6.16-6.74 8.78v.01a21.19 21.19 0 0 1-4.81 2.43c-1.2.44-2.52.81-3.97 1.1-2.19.43-4.67.68-7.48.68s-5.29-.25-7.48-.68a26.85 26.85 0 0 1-3.83-1.05c1.08.15 2.18.22 3.31.22 11.11 0 20.19-7.3 20.8-16.49H56z"/><path fill="#4e0eaa" d="M56 24s0 2.17-1 5c-.98 2.76-2.92 6.16-6.74 8.78v.01a21.19 21.19 0 0 1-4.81 2.43c-1.2.44-2.52.81-3.97 1.1-1.94.38-4.11.62-6.54.67 9.13-1.86 15.9-8.76 15.9-16.99 0-.34-.01-.67-.04-1H56z"/><path fill="#666" d="M51.66 60.68c.18 1.22-.77 2.32-2 2.32-.97 0-1.8-.68-1.98-1.62L46.8 57l-.8-4-2.55-12.77v-.01a21.19 21.19 0 0 0 4.81-2.43l3.4 22.89z"/><path fill="#4d4d4d" d="m46 53 .8 4H17.2l.8-4z"/><path fill="#ffc634" d="M39 13a2.996 2.996 0 0 1 2.12 5.12c-.54.54-1.29.88-2.12.88H25a2.996 2.996 0 0 1-2.12-5.12c.54-.54 1.29-.88 2.12-.88h14z"/><path fill="#ff881d" d="M42 16c0 .83-.34 1.58-.88 2.12S39.83 19 39 19H25c-1.66 0-3-1.34-3-3 0-.06 0-.12.01-.18.31.12.64.18.99.18h14c.83 0 1.58-.34 2.12-.88.5-.5.83-1.18.87-1.94 1.17.4 2.01 1.51 2.01 2.82z"/><path fill="#4d4d4d" d="m39.48 41.32.01.05L37 46H27l-2.49-4.63.01-.05c2.19.43 4.67.68 7.48.68s5.29-.25 7.48-.68z"/><path fill="#ffc634" d="M39 28v1c0 2.21-1.79 4-4 4h-6c-2.21 0-4-1.79-4-4v-1h14z"/><path fill="#ff881d" d="M39 28v1c0 2.21-1.79 4-4 4h-6c-2.21 0-4-1.79-4-4v-1h.3c.59 1.47 2.02 2.5 3.7 2.5h6c1.68 0 3.11-1.03 3.7-2.5h.3z"/><path fill="#666" d="M20.55 40.22v.01L18 53l-.8 4-.88 4.38c-.18.94-1.01 1.62-1.98 1.62-1.23 0-2.18-1.1-2-2.32l3.4-22.89c1.35.92 2.94 1.76 4.81 2.43z"/><path fill="#4d4d4d" d="M9 29H3v-5h5s0 2.17 1 5z"/><path fill="#666" d="M56 18H8a1 1 0 0 0 0 2h3v4h2v-4h4v4h2v-4h4v4h2v-4h4v4h2v-4h2v4h2v-4h4v4h2v-4h4v4h2v-4h4v4h2v-4h3a1 1 0 0 0 0-2z"/><path fill="#ffd91f" d="M28 16.02a.994.994 0 0 1-.736-.323l-1.86-2.02a1 1 0 1 1 1.472-1.354l1.86 2.02A1 1 0 0 1 28 16.02zm5 0a.994.994 0 0 1-.736-.323l-1.86-2.02a1 1 0 1 1 1.472-1.354l1.86 2.02A1 1 0 0 1 33 16.02zm5 0a.994.994 0 0 1-.736-.323l-1.86-2.02a1 1 0 1 1 1.472-1.354l1.86 2.02A1 1 0 0 1 38 16.02z"/><path fill="#f8f4e8" d="M26 11a1 1 0 0 1-.732-1.682c.48-.519 1.031-1.482.837-1.871-1.307-2.615 1.085-5.052 1.188-5.154a.999.999 0 1 1 1.414 1.414c-.012.012-1.474 1.524-.812 2.846.915 1.83-.949 3.901-1.165 4.131A.997.997 0 0 1 26 11zm10.05 0a1 1 0 0 1-.728-1.685c.482-.518 1.033-1.476.836-1.861-1.31-2.621 1.082-5.058 1.185-5.16a.999.999 0 1 1 1.414 1.414c-.012.012-1.474 1.524-.812 2.846.929 1.828-.95 3.903-1.167 4.133a1.001 1.001 0 0 1-.728.313zM32 11a.999.999 0 0 1-.707-1.707c.294-.304 1.179-1.406 0-2.586-2.142-2.141-.282-5.132 1-6.414a.999.999 0 1 1 1.414 1.414c-.06.062-2.257 2.33-1 3.586 1.986 1.986 1.088 4.326 0 5.414A.997.997 0 0 1 32 11z"/><path fill="#b383fe" d="M11.347 27.252c0 .542.458 1 1 1h4.783c.54 0 1-.46 1-1 0-.542-.458-1-1-1h-4.783c-.54 0-1 .459-1 1zm8.174 0c0 1.287 2 1.289 2 0 0-1.287-2-1.289-2 0z"/></svg>